<mxfile host="app.diagrams.net" agent="Mozilla/5.0 (Windows NT 10.0; Win64; x64) AppleWebKit/537.36 (KHTML, like Gecko) Chrome/132.0.0.0 Safari/537.36 OPR/117.0.0.0" version="26.2.14">
  <diagram name="Page-1" id="e7e014a7-5840-1c2e-5031-d8a46d1fe8dd">
    <mxGraphModel dx="1229" dy="733" grid="0" gridSize="10" guides="1" tooltips="1" connect="1" arrows="1" fold="1" page="1" pageScale="1" pageWidth="1169" pageHeight="826" background="none" math="0" shadow="0">
      <root>
        <mxCell id="0" />
        <mxCell id="1" parent="0" />
        <mxCell id="j6jzswaWR4FYS1sbHGSX-41" value="Utilisateurs" style="swimlane;whiteSpace=wrap;movable=1;resizable=1;rotatable=1;deletable=1;editable=1;locked=0;connectable=1;" vertex="1" parent="1">
          <mxGeometry x="279" y="87" width="262.5" height="570" as="geometry" />
        </mxCell>
        <mxCell id="j6jzswaWR4FYS1sbHGSX-42" value="" style="ellipse;shape=startState;fillColor=#000000;strokeColor=#000000;" vertex="1" parent="j6jzswaWR4FYS1sbHGSX-41">
          <mxGeometry x="100" y="28" width="30" height="30" as="geometry" />
        </mxCell>
        <mxCell id="j6jzswaWR4FYS1sbHGSX-43" value="" style="edgeStyle=elbowEdgeStyle;elbow=horizontal;verticalAlign=bottom;endArrow=open;endSize=8;strokeColor=#000000;endFill=1;rounded=0" edge="1" parent="j6jzswaWR4FYS1sbHGSX-41" source="j6jzswaWR4FYS1sbHGSX-42">
          <mxGeometry x="100" y="40" as="geometry">
            <mxPoint x="115.5" y="98" as="targetPoint" />
          </mxGeometry>
        </mxCell>
        <mxCell id="j6jzswaWR4FYS1sbHGSX-44" style="edgeStyle=orthogonalEdgeStyle;rounded=0;orthogonalLoop=1;jettySize=auto;html=1;" edge="1" parent="j6jzswaWR4FYS1sbHGSX-41" source="j6jzswaWR4FYS1sbHGSX-45">
          <mxGeometry relative="1" as="geometry">
            <mxPoint x="364.41656494140625" y="119" as="targetPoint" />
          </mxGeometry>
        </mxCell>
        <mxCell id="j6jzswaWR4FYS1sbHGSX-45" value="" style="rounded=1;whiteSpace=wrap;html=1;" vertex="1" parent="j6jzswaWR4FYS1sbHGSX-41">
          <mxGeometry x="55" y="100" width="120" height="38" as="geometry" />
        </mxCell>
        <mxCell id="j6jzswaWR4FYS1sbHGSX-46" value="&lt;b&gt;Demande&amp;nbsp; création d&#39;une offre&lt;/b&gt;" style="text;html=1;align=center;verticalAlign=middle;whiteSpace=wrap;rounded=0;" vertex="1" parent="j6jzswaWR4FYS1sbHGSX-41">
          <mxGeometry x="59" y="104" width="114" height="30" as="geometry" />
        </mxCell>
        <mxCell id="j6jzswaWR4FYS1sbHGSX-47" style="edgeStyle=orthogonalEdgeStyle;rounded=0;orthogonalLoop=1;jettySize=auto;html=1;" edge="1" parent="j6jzswaWR4FYS1sbHGSX-41" source="j6jzswaWR4FYS1sbHGSX-48">
          <mxGeometry relative="1" as="geometry">
            <mxPoint x="115" y="231.00521087646484" as="targetPoint" />
          </mxGeometry>
        </mxCell>
        <mxCell id="j6jzswaWR4FYS1sbHGSX-48" value="" style="rounded=1;whiteSpace=wrap;html=1;" vertex="1" parent="j6jzswaWR4FYS1sbHGSX-41">
          <mxGeometry x="55" y="164" width="120" height="39" as="geometry" />
        </mxCell>
        <mxCell id="j6jzswaWR4FYS1sbHGSX-49" value="&lt;b&gt;Remplir le formulaire&lt;/b&gt;" style="text;html=1;align=center;verticalAlign=middle;whiteSpace=wrap;rounded=0;" vertex="1" parent="j6jzswaWR4FYS1sbHGSX-41">
          <mxGeometry x="76" y="168" width="78" height="30" as="geometry" />
        </mxCell>
        <mxCell id="j6jzswaWR4FYS1sbHGSX-51" value="" style="rounded=1;whiteSpace=wrap;html=1;" vertex="1" parent="j6jzswaWR4FYS1sbHGSX-41">
          <mxGeometry x="55" y="232" width="120" height="39" as="geometry" />
        </mxCell>
        <mxCell id="j6jzswaWR4FYS1sbHGSX-52" value="&lt;b&gt;Soumettre le formulaire&lt;/b&gt;" style="text;html=1;align=center;verticalAlign=middle;whiteSpace=wrap;rounded=0;" vertex="1" parent="j6jzswaWR4FYS1sbHGSX-41">
          <mxGeometry x="76" y="237" width="78" height="30" as="geometry" />
        </mxCell>
        <mxCell id="j6jzswaWR4FYS1sbHGSX-53" value="Système" style="swimlane;whiteSpace=wrap;movable=1;resizable=1;rotatable=1;deletable=1;editable=1;locked=0;connectable=1;" vertex="1" parent="1">
          <mxGeometry x="541.5" y="87" width="415" height="570" as="geometry">
            <mxRectangle x="427" y="128" width="82" height="26" as="alternateBounds" />
          </mxGeometry>
        </mxCell>
        <mxCell id="j6jzswaWR4FYS1sbHGSX-54" value="" style="rounded=1;whiteSpace=wrap;html=1;" vertex="1" parent="j6jzswaWR4FYS1sbHGSX-53">
          <mxGeometry x="88.5" y="100" width="171.5" height="38" as="geometry" />
        </mxCell>
        <mxCell id="j6jzswaWR4FYS1sbHGSX-55" value="&lt;b&gt;Afficher interface de formulaire&lt;/b&gt;" style="text;html=1;align=center;verticalAlign=middle;whiteSpace=wrap;rounded=0;" vertex="1" parent="j6jzswaWR4FYS1sbHGSX-53">
          <mxGeometry x="115.5" y="105" width="124.5" height="30" as="geometry" />
        </mxCell>
        <mxCell id="j6jzswaWR4FYS1sbHGSX-56" value="" style="rounded=1;whiteSpace=wrap;html=1;" vertex="1" parent="j6jzswaWR4FYS1sbHGSX-53">
          <mxGeometry x="98.5" y="232" width="138.5" height="38" as="geometry" />
        </mxCell>
        <mxCell id="j6jzswaWR4FYS1sbHGSX-57" style="edgeStyle=orthogonalEdgeStyle;rounded=0;orthogonalLoop=1;jettySize=auto;html=1;" edge="1" parent="j6jzswaWR4FYS1sbHGSX-53">
          <mxGeometry relative="1" as="geometry">
            <mxPoint x="165.75" y="302.00521087646484" as="targetPoint" />
            <mxPoint x="165.75" y="268" as="sourcePoint" />
          </mxGeometry>
        </mxCell>
        <mxCell id="j6jzswaWR4FYS1sbHGSX-58" value="&lt;b&gt;Vérifier contenue de l&#39;offre&lt;/b&gt;" style="text;html=1;align=center;verticalAlign=middle;whiteSpace=wrap;rounded=0;" vertex="1" parent="j6jzswaWR4FYS1sbHGSX-53">
          <mxGeometry x="103.5" y="237" width="124.5" height="30" as="geometry" />
        </mxCell>
        <mxCell id="j6jzswaWR4FYS1sbHGSX-59" style="edgeStyle=orthogonalEdgeStyle;rounded=0;orthogonalLoop=1;jettySize=auto;html=1;entryX=0.426;entryY=-0.027;entryDx=0;entryDy=0;entryPerimeter=0;" edge="1" parent="j6jzswaWR4FYS1sbHGSX-53" source="j6jzswaWR4FYS1sbHGSX-60" target="j6jzswaWR4FYS1sbHGSX-66">
          <mxGeometry relative="1" as="geometry">
            <mxPoint x="71.083251953125" y="352.67186737060547" as="targetPoint" />
          </mxGeometry>
        </mxCell>
        <mxCell id="j6jzswaWR4FYS1sbHGSX-60" value="" style="rhombus;whiteSpace=wrap;html=1;" vertex="1" parent="j6jzswaWR4FYS1sbHGSX-53">
          <mxGeometry x="142.88" y="302" width="45.75" height="43" as="geometry" />
        </mxCell>
        <mxCell id="j6jzswaWR4FYS1sbHGSX-61" value="" style="rounded=1;whiteSpace=wrap;html=1;" vertex="1" parent="j6jzswaWR4FYS1sbHGSX-53">
          <mxGeometry x="194" y="353" width="108.5" height="39" as="geometry" />
        </mxCell>
        <mxCell id="j6jzswaWR4FYS1sbHGSX-62" style="edgeStyle=orthogonalEdgeStyle;rounded=0;orthogonalLoop=1;jettySize=auto;html=1;entryX=0.572;entryY=0.013;entryDx=0;entryDy=0;entryPerimeter=0;" edge="1" parent="j6jzswaWR4FYS1sbHGSX-53" source="j6jzswaWR4FYS1sbHGSX-60" target="j6jzswaWR4FYS1sbHGSX-61">
          <mxGeometry relative="1" as="geometry" />
        </mxCell>
        <mxCell id="j6jzswaWR4FYS1sbHGSX-63" value="&lt;b&gt;Message d&#39;erreur&lt;/b&gt;" style="text;html=1;align=center;verticalAlign=middle;whiteSpace=wrap;rounded=0;" vertex="1" parent="j6jzswaWR4FYS1sbHGSX-53">
          <mxGeometry x="194" y="357.5" width="110" height="30" as="geometry" />
        </mxCell>
        <mxCell id="j6jzswaWR4FYS1sbHGSX-64" value="[contenue correcte]" style="text;html=1;align=center;verticalAlign=middle;whiteSpace=wrap;rounded=0;" vertex="1" parent="j6jzswaWR4FYS1sbHGSX-53">
          <mxGeometry x="18" y="277" width="124" height="30" as="geometry" />
        </mxCell>
        <mxCell id="j6jzswaWR4FYS1sbHGSX-65" value="[contenue incorrecte]" style="text;html=1;align=center;verticalAlign=middle;whiteSpace=wrap;rounded=0;" vertex="1" parent="j6jzswaWR4FYS1sbHGSX-53">
          <mxGeometry x="188.63" y="277" width="124" height="30" as="geometry" />
        </mxCell>
        <mxCell id="j6jzswaWR4FYS1sbHGSX-66" value="" style="rounded=1;whiteSpace=wrap;html=1;" vertex="1" parent="j6jzswaWR4FYS1sbHGSX-53">
          <mxGeometry x="15" y="422" width="120" height="37" as="geometry" />
        </mxCell>
        <mxCell id="j6jzswaWR4FYS1sbHGSX-67" value="&lt;b&gt;Publier l&#39;offre&lt;/b&gt;" style="text;html=1;align=center;verticalAlign=middle;whiteSpace=wrap;rounded=0;" vertex="1" parent="j6jzswaWR4FYS1sbHGSX-53">
          <mxGeometry x="25" y="428" width="110" height="30" as="geometry" />
        </mxCell>
        <mxCell id="j6jzswaWR4FYS1sbHGSX-68" style="edgeStyle=orthogonalEdgeStyle;rounded=0;orthogonalLoop=1;jettySize=auto;html=1;entryX=1;entryY=0.25;entryDx=0;entryDy=0;" edge="1" parent="j6jzswaWR4FYS1sbHGSX-53" source="j6jzswaWR4FYS1sbHGSX-70" target="j6jzswaWR4FYS1sbHGSX-54">
          <mxGeometry relative="1" as="geometry">
            <mxPoint x="393.583251953125" y="126.00521087646484" as="targetPoint" />
            <Array as="points">
              <mxPoint x="386" y="433" />
              <mxPoint x="386" y="110" />
            </Array>
          </mxGeometry>
        </mxCell>
        <mxCell id="j6jzswaWR4FYS1sbHGSX-69" style="edgeStyle=orthogonalEdgeStyle;rounded=0;orthogonalLoop=1;jettySize=auto;html=1;entryX=0.5;entryY=0;entryDx=0;entryDy=0;" edge="1" parent="j6jzswaWR4FYS1sbHGSX-53" source="j6jzswaWR4FYS1sbHGSX-70" target="j6jzswaWR4FYS1sbHGSX-74">
          <mxGeometry relative="1" as="geometry" />
        </mxCell>
        <mxCell id="j6jzswaWR4FYS1sbHGSX-70" value="" style="rhombus;whiteSpace=wrap;html=1;" vertex="1" parent="j6jzswaWR4FYS1sbHGSX-53">
          <mxGeometry x="232.75" y="417" width="31" height="32.84" as="geometry" />
        </mxCell>
        <mxCell id="j6jzswaWR4FYS1sbHGSX-71" style="edgeStyle=orthogonalEdgeStyle;rounded=0;orthogonalLoop=1;jettySize=auto;html=1;" edge="1" parent="j6jzswaWR4FYS1sbHGSX-53" source="j6jzswaWR4FYS1sbHGSX-63" target="j6jzswaWR4FYS1sbHGSX-70">
          <mxGeometry relative="1" as="geometry">
            <mxPoint x="249" y="411.8385238647461" as="targetPoint" />
          </mxGeometry>
        </mxCell>
        <mxCell id="j6jzswaWR4FYS1sbHGSX-74" value="" style="rounded=1;whiteSpace=wrap;html=1;" vertex="1" parent="j6jzswaWR4FYS1sbHGSX-53">
          <mxGeometry x="195" y="475" width="107" height="26" as="geometry" />
        </mxCell>
        <mxCell id="j6jzswaWR4FYS1sbHGSX-75" value="&lt;b&gt;Fermer&lt;/b&gt;" style="text;html=1;align=center;verticalAlign=middle;whiteSpace=wrap;rounded=0;" vertex="1" parent="j6jzswaWR4FYS1sbHGSX-53">
          <mxGeometry x="202.25" y="475" width="96.75" height="27" as="geometry" />
        </mxCell>
        <mxCell id="j6jzswaWR4FYS1sbHGSX-76" style="edgeStyle=orthogonalEdgeStyle;rounded=0;orthogonalLoop=1;jettySize=auto;html=1;entryX=1;entryY=0.5;entryDx=0;entryDy=0;" edge="1" parent="1" source="j6jzswaWR4FYS1sbHGSX-54" target="j6jzswaWR4FYS1sbHGSX-48">
          <mxGeometry relative="1" as="geometry">
            <Array as="points">
              <mxPoint x="733.5" y="270" />
            </Array>
          </mxGeometry>
        </mxCell>
        <mxCell id="j6jzswaWR4FYS1sbHGSX-77" value="" style="ellipse;html=1;shape=endState;fillColor=#000000;strokeColor=#000000;" vertex="1" parent="1">
          <mxGeometry x="777.125" y="597.6932067871094" width="30" height="30" as="geometry" />
        </mxCell>
        <mxCell id="j6jzswaWR4FYS1sbHGSX-78" style="edgeStyle=orthogonalEdgeStyle;rounded=0;orthogonalLoop=1;jettySize=auto;html=1;" edge="1" parent="1" source="j6jzswaWR4FYS1sbHGSX-75" target="j6jzswaWR4FYS1sbHGSX-77">
          <mxGeometry relative="1" as="geometry">
            <mxPoint x="792.125" y="609.6932067871094" as="targetPoint" />
          </mxGeometry>
        </mxCell>
        <mxCell id="j6jzswaWR4FYS1sbHGSX-79" value="" style="ellipse;html=1;shape=endState;fillColor=#000000;strokeColor=#000000;" vertex="1" parent="1">
          <mxGeometry x="601.5" y="559.3654365539551" width="30" height="30" as="geometry" />
        </mxCell>
        <mxCell id="j6jzswaWR4FYS1sbHGSX-80" style="edgeStyle=orthogonalEdgeStyle;rounded=0;orthogonalLoop=1;jettySize=auto;html=1;" edge="1" parent="1">
          <mxGeometry relative="1" as="geometry">
            <mxPoint x="616.5" y="560.3654365539551" as="targetPoint" />
            <mxPoint x="616.5" y="547" as="sourcePoint" />
          </mxGeometry>
        </mxCell>
        <mxCell id="j6jzswaWR4FYS1sbHGSX-81" value="&lt;font style=&quot;font-size: 18px;&quot;&gt;&lt;b style=&quot;&quot;&gt;CAS DE PUBLICATION D&#39;UNE OFFRE&lt;/b&gt;&lt;/font&gt;" style="text;html=1;align=center;verticalAlign=middle;whiteSpace=wrap;rounded=0;" vertex="1" parent="1">
          <mxGeometry x="404" y="30" width="421.5" height="36" as="geometry" />
        </mxCell>
        <mxCell id="j6jzswaWR4FYS1sbHGSX-50" style="edgeStyle=orthogonalEdgeStyle;rounded=0;orthogonalLoop=1;jettySize=auto;html=1;entryX=0;entryY=0.5;entryDx=0;entryDy=0;" edge="1" parent="1" source="j6jzswaWR4FYS1sbHGSX-51" target="j6jzswaWR4FYS1sbHGSX-56">
          <mxGeometry relative="1" as="geometry">
            <mxPoint x="629.5" y="340" as="targetPoint" />
          </mxGeometry>
        </mxCell>
      </root>
    </mxGraphModel>
  </diagram>
</mxfile>
